<svg width="1400" height="540" viewBox="0 0 1400 540" fill="none" xmlns="http://www.w3.org/2000/svg">
<defs><filter id="glow"><feGaussianBlur stdDeviation="4" result="b"/><feMerge><feMergeNode in="b"/><feMergeNode in="SourceGraphic"/></feMerge></filter><style>text{font-family:ui-monospace,SFMono-Regular,Menlo,Monaco,Consolas,"Liberation Mono",monospace}.card{fill:#0f172a;stroke:#22c55e;stroke-opacity:.55}.line{stroke:#22c55e;stroke-width:3;stroke-dasharray:18 16;animation:flow 8s linear infinite;filter:url(#glow)}.pulse{animation:pulse 3s ease-in-out infinite}@keyframes flow{to{stroke-dashoffset:-360}}@keyframes pulse{0%,100%{opacity:.6}50%{opacity:1}}</style></defs>
<rect width="1400" height="540" rx="32" fill="#020617"/><text x="700" y="58" text-anchor="middle" fill="#ffffff" font-size="34" font-weight="900">ARCHITECTURE STYLE</text><text x="700" y="92" text-anchor="middle" fill="#86efac" font-size="16">clean modules, typed services, observable runtime</text>
<path d="M355 190H510" class="line"/><path d="M890 190H1045" class="line"/><path d="M700 258V338" class="line"/><path d="M515 402H360" class="line"/><path d="M885 402H1040" class="line"/>
<g transform="translate(110 135)" class="pulse"><rect class="card" width="250" height="112" rx="22"/><text x="24" y="38" fill="#ffffff" font-size="20" font-weight="900">bot/</text><text x="24" y="70" fill="#86efac" font-size="14">commands • handlers</text><text x="24" y="94" fill="#86efac" font-size="14">middlewares • keyboards</text></g>
<g transform="translate(510 135)" class="pulse"><rect class="card" width="380" height="124" rx="22"/><text x="24" y="40" fill="#ffffff" font-size="22" font-weight="900">services/</text><text x="24" y="74" fill="#86efac" font-size="15">tron • aml • exchanges • telegram</text><text x="24" y="100" fill="#cbd5e1" font-size="13">business logic lives here</text></g>
<g transform="translate(1040 135)" class="pulse"><rect class="card" width="250" height="112" rx="22"/><text x="24" y="38" fill="#ffffff" font-size="20" font-weight="900">repositories/</text><text x="24" y="70" fill="#86efac" font-size="14">Prisma • PostgreSQL</text><text x="24" y="94" fill="#86efac" font-size="14">data persistence</text></g>
<g transform="translate(110 347)" class="pulse"><rect class="card" width="250" height="112" rx="22"/><text x="24" y="38" fill="#ffffff" font-size="20" font-weight="900">config/</text><text x="24" y="70" fill="#86efac" font-size="14">env validation</text><text x="24" y="94" fill="#86efac" font-size="14">logger setup</text></g>
<g transform="translate(515 338)" class="pulse"><rect class="card" width="370" height="130" rx="22"/><text x="24" y="42" fill="#ffffff" font-size="22" font-weight="900">utils/</text><text x="24" y="76" fill="#86efac" font-size="15">formatters • guards • retry</text><text x="24" y="102" fill="#cbd5e1" font-size="13">small tools with clear responsibility</text></g>
<g transform="translate(1040 347)" class="pulse"><rect class="card" width="250" height="112" rx="22"/><text x="24" y="38" fill="#ffffff" font-size="20" font-weight="900">runtime</text><text x="24" y="70" fill="#86efac" font-size="14">logs • queues • alerts</text><text x="24" y="94" fill="#86efac" font-size="14">Docker deployment</text></g>
<rect x="1" y="1" width="1398" height="538" rx="32" stroke="#22c55e" stroke-opacity=".3"/>
</svg>