<svg width="1400" height="460" viewBox="0 0 1400 460" fill="none" xmlns="http://www.w3.org/2000/svg">
<defs>
<linearGradient id="bg" x1="0" y1="0" x2="1400" y2="460"><stop offset="0%" stop-color="#020617"/><stop offset="45%" stop-color="#052e16"/><stop offset="100%" stop-color="#020617"/></linearGradient>
<radialGradient id="orb" cx="50%" cy="45%" r="70%"><stop offset="0%" stop-color="#22c55e" stop-opacity=".75"/><stop offset="45%" stop-color="#16a34a" stop-opacity=".18"/><stop offset="100%" stop-color="#020617" stop-opacity="0"/></radialGradient>
<linearGradient id="wire" x1="0" y1="0" x2="1400" y2="0"><stop offset="0%" stop-color="#22c55e" stop-opacity=".05"/><stop offset="50%" stop-color="#bbf7d0" stop-opacity="1"/><stop offset="100%" stop-color="#22c55e" stop-opacity=".05"/></linearGradient>
<filter id="glow"><feGaussianBlur stdDeviation="5" result="b"/><feMerge><feMergeNode in="b"/><feMergeNode in="SourceGraphic"/></feMerge></filter>
<pattern id="grid" width="42" height="42" patternUnits="userSpaceOnUse"><path d="M42 0H0V42" stroke="#22c55e" stroke-width=".7" opacity=".13"/></pattern>
<style>
text{font-family:ui-monospace,SFMono-Regular,Menlo,Monaco,Consolas,"Liberation Mono",monospace}
.scan{animation:scan 6s linear infinite}.pulse{animation:pulse 3s ease-in-out infinite}.float{animation:float 6s ease-in-out infinite}.dash{stroke-dasharray:24 20;animation:dash 12s linear infinite}.cursor{animation:blink 1s steps(1) infinite}
@keyframes scan{from{transform:translateY(-460px)}to{transform:translateY(460px)}}
@keyframes pulse{0%,100%{opacity:.45}50%{opacity:1}}
@keyframes float{0%,100%{transform:translateY(0)}50%{transform:translateY(-16px)}}
@keyframes dash{to{stroke-dashoffset:-520}}
@keyframes blink{0%,49%{opacity:1}50%,100%{opacity:0}}
</style>
</defs>
<rect width="1400" height="460" rx="36" fill="url(#bg)"/>
<rect width="1400" height="460" rx="36" fill="url(#grid)"/>
<circle cx="700" cy="190" r="365" fill="url(#orb)" class="pulse"/>
<g class="scan" opacity=".17"><rect x="0" y="0" width="1400" height="100" fill="url(#wire)"/></g>
<path d="M55 355C250 175 390 405 565 265C740 125 850 140 990 245C1125 345 1215 340 1345 165" stroke="url(#wire)" stroke-width="3" class="dash" filter="url(#glow)"/>
<g class="float" filter="url(#glow)"><circle cx="170" cy="95" r="5" fill="#86efac"/><circle cx="1215" cy="95" r="6" fill="#22c55e"/><circle cx="1170" cy="342" r="5" fill="#84cc16"/><circle cx="330" cy="330" r="4" fill="#22c55e"/></g>
<g transform="translate(70 75)">
<rect width="310" height="250" rx="24" fill="#020617" stroke="#22c55e" stroke-opacity=".62"/>
<rect x="22" y="22" width="266" height="38" rx="10" fill="#111827" stroke="#22c55e" stroke-opacity=".28"/>
<circle cx="46" cy="41" r="5" fill="#ef4444"/><circle cx="66" cy="41" r="5" fill="#f59e0b"/><circle cx="86" cy="41" r="5" fill="#22c55e"/>
<text x="24" y="96" fill="#86efac" font-size="15">$ boot profile</text>
<text x="24" y="130" fill="#ffffff" font-size="18" font-weight="800">Yunys Aliev</text>
<text x="24" y="168" fill="#86efac" font-size="15">$ stack</text>
<text x="24" y="198" fill="#ffffff" font-size="15">TS • Node • Next • Docker</text>
<text x="24" y="224" fill="#ffffff" font-size="15">TRON • AML • Telegram</text>
</g>
<g text-anchor="middle">
<text x="700" y="158" fill="#ffffff" font-size="68" font-weight="900" filter="url(#glow)">YUNYS ALIEV</text>
<text x="700" y="207" fill="#86efac" font-size="22" font-weight="800">TypeScript Developer • Telegram Bot Architect • Crypto Automation</text>
<text x="700" y="250" fill="#d1fae5" font-size="18">I build production-ready tools that monitor, analyze, notify and automate.</text>
</g>
<g transform="translate(1040 75)">
<rect width="290" height="250" rx="24" fill="#020617" stroke="#22c55e" stroke-opacity=".62"/>
<text x="24" y="42" fill="#86efac" font-size="17" font-weight="800">LIVE MODULES</text>
<text x="24" y="82" fill="#ffffff" font-size="14">Telegram Bots</text><rect x="174" y="68" width="92" height="20" rx="10" fill="#14532d"/><text x="191" y="83" fill="#86efac" font-size="14" font-weight="800">ACTIVE</text>
<text x="24" y="122" fill="#ffffff" font-size="14">USDT TRC20</text><rect x="174" y="108" width="92" height="20" rx="10" fill="#14532d"/><text x="191" y="123" fill="#86efac" font-size="14" font-weight="800">ACTIVE</text>
<text x="24" y="162" fill="#ffffff" font-size="14">AML Engine</text><rect x="174" y="148" width="92" height="20" rx="10" fill="#14532d"/><text x="202" y="163" fill="#86efac" font-size="14" font-weight="800">DEV</text>
<text x="24" y="202" fill="#ffffff" font-size="14">Docker Deploy</text><rect x="174" y="188" width="92" height="20" rx="10" fill="#14532d"/><text x="194" y="203" fill="#86efac" font-size="14" font-weight="800">READY</text>
</g>
<rect x="470" y="315" width="460" height="34" rx="8" fill="#020617" opacity=".82"/><text x="490" y="338" fill="#86efac" font-size="17">npm run build:automation-system</text><rect x="875" y="322" width="10" height="18" rx="2" fill="#22c55e" class="cursor"/>
<rect x="1" y="1" width="1398" height="458" rx="36" stroke="#22c55e" stroke-opacity=".36"/>
</svg>