<svg width="1400" height="520" viewBox="0 0 1400 520" fill="none" xmlns="http://www.w3.org/2000/svg">
<defs><filter id="glow"><feGaussianBlur stdDeviation="4" result="b"/><feMerge><feMergeNode in="b"/><feMergeNode in="SourceGraphic"/></feMerge></filter><linearGradient id="line" x1="0" x2="1400" y1="0" y2="0"><stop offset="0%" stop-color="#22c55e" stop-opacity=".15"/><stop offset="50%" stop-color="#86efac"/><stop offset="100%" stop-color="#22c55e" stop-opacity=".15"/></linearGradient><style>text{font-family:ui-monospace,SFMono-Regular,Menlo,Monaco,Consolas,"Liberation Mono",monospace}.node{fill:#0f172a;stroke:#22c55e;stroke-opacity:.72}.line{stroke:url(#line);stroke-width:4;stroke-dasharray:18 16;animation:flow 8s linear infinite;filter:url(#glow)}.pulse{animation:pulse 3s ease-in-out infinite}@keyframes flow{to{stroke-dashoffset:-410}}@keyframes pulse{0%,100%{opacity:.58}50%{opacity:1}}</style></defs>
<rect width="1400" height="520" rx="32" fill="#020617"/><text x="700" y="58" text-anchor="middle" fill="#ffffff" font-size="34" font-weight="900">PRODUCTION PIPELINE</text><text x="700" y="92" text-anchor="middle" fill="#86efac" font-size="16">how ideas become working systems</text>
<path d="M205 250H347" class="line"/><path d="M453 250H595" class="line"/><path d="M701 250H843" class="line"/><path d="M949 250H1091" class="line"/><path d="M575 330C630 405 765 405 825 330" class="line"/>
<g transform="translate(85 178)" class="pulse"><rect class="node" width="120" height="144" rx="22"/><text x="60" y="49" text-anchor="middle" font-size="30">💡</text><text x="60" y="86" text-anchor="middle" fill="#ffffff" font-size="15" font-weight="900">IDEA</text><text x="60" y="112" text-anchor="middle" fill="#86efac" font-size="12">problem</text></g>
<g transform="translate(347 178)" class="pulse"><rect class="node" width="120" height="144" rx="22"/><text x="60" y="49" text-anchor="middle" font-size="30">🧱</text><text x="60" y="86" text-anchor="middle" fill="#ffffff" font-size="15" font-weight="900">DESIGN</text><text x="60" y="112" text-anchor="middle" fill="#86efac" font-size="12">types</text></g>
<g transform="translate(609 178)" class="pulse"><rect class="node" width="120" height="144" rx="22"/><text x="60" y="49" text-anchor="middle" font-size="30">⚙️</text><text x="60" y="86" text-anchor="middle" fill="#ffffff" font-size="15" font-weight="900">BUILD</text><text x="60" y="112" text-anchor="middle" fill="#86efac" font-size="12">services</text></g>
<g transform="translate(871 178)" class="pulse"><rect class="node" width="120" height="144" rx="22"/><text x="60" y="49" text-anchor="middle" font-size="30">🧪</text><text x="60" y="86" text-anchor="middle" fill="#ffffff" font-size="15" font-weight="900">CHECK</text><text x="60" y="112" text-anchor="middle" fill="#86efac" font-size="12">logs</text></g>
<g transform="translate(1133 178)" class="pulse"><rect class="node" width="120" height="144" rx="22"/><text x="60" y="49" text-anchor="middle" font-size="30">🚀</text><text x="60" y="86" text-anchor="middle" fill="#ffffff" font-size="15" font-weight="900">SHIP</text><text x="60" y="112" text-anchor="middle" fill="#86efac" font-size="12">docker</text></g>
<g transform="translate(560 385)" class="pulse"><rect class="node" width="280" height="74" rx="22"/><text x="140" y="31" text-anchor="middle" fill="#ffffff" font-size="18" font-weight="900">MONITOR AND IMPROVE</text><text x="140" y="55" text-anchor="middle" fill="#86efac" font-size="12">alerts • diagnostics • iteration</text></g>
<rect x="1" y="1" width="1398" height="518" rx="32" stroke="#22c55e" stroke-opacity=".3"/>
</svg>