<svg width="1400" height="560" viewBox="0 0 1400 560" fill="none" xmlns="http://www.w3.org/2000/svg">
<defs><radialGradient id="r" cx="50%" cy="50%" r="50%"><stop offset="0%" stop-color="#22c55e" stop-opacity=".18"/><stop offset="100%" stop-color="#020617" stop-opacity="0"/></radialGradient><filter id="glow"><feGaussianBlur stdDeviation="4" result="b"/><feMerge><feMergeNode in="b"/><feMergeNode in="SourceGraphic"/></feMerge></filter><style>text{font-family:ui-monospace,SFMono-Regular,Menlo,Monaco,Consolas,"Liberation Mono",monospace}.sweep{transform-origin:700px 300px;animation:spin 8s linear infinite}.pulse{animation:pulse 2.8s ease-in-out infinite}@keyframes spin{to{transform:rotate(360deg)}}@keyframes pulse{0%,100%{opacity:.45}50%{opacity:1}}</style></defs>
<rect width="1400" height="560" rx="32" fill="#020617"/><circle cx="700" cy="300" r="238" fill="url(#r)" class="pulse"/>
<circle cx="700" cy="300" r="70" stroke="#22c55e" stroke-opacity=".24"/><circle cx="700" cy="300" r="132" stroke="#22c55e" stroke-opacity=".24"/><circle cx="700" cy="300" r="194" stroke="#22c55e" stroke-opacity=".24"/><circle cx="700" cy="300" r="256" stroke="#22c55e" stroke-opacity=".24"/>
<path d="M700 300L700 42" stroke="#22c55e" stroke-opacity=".28"/><path d="M700 300L922 172" stroke="#22c55e" stroke-opacity=".18"/><path d="M700 300L922 428" stroke="#22c55e" stroke-opacity=".18"/><path d="M700 300L478 428" stroke="#22c55e" stroke-opacity=".18"/><path d="M700 300L478 172" stroke="#22c55e" stroke-opacity=".18"/>
<g class="sweep"><path d="M700 300L700 42A258 258 0 0 1 828 77Z" fill="#22c55e" opacity=".22" filter="url(#glow)"/><path d="M700 300L700 42" stroke="#86efac" stroke-width="3" filter="url(#glow)"/></g>
<text x="700" y="54" text-anchor="middle" fill="#ffffff" font-size="34" font-weight="900">TECH RADAR</text><text x="700" y="88" text-anchor="middle" fill="#86efac" font-size="16">core stack and current engineering focus</text>
<circle cx="700" cy="300" r="9" fill="#86efac" filter="url(#glow)"/><text x="716" y="306" fill="#ffffff" font-size="16" font-weight="800">TypeScript</text>
<circle cx="584" cy="205" r="7" fill="#22c55e" filter="url(#glow)"/><text x="450" y="198" fill="#ffffff" font-size="16" font-weight="800">Telegraf</text><text x="430" y="222" fill="#86efac" font-size="13">Telegram bots</text>
<circle cx="830" cy="210" r="7" fill="#22c55e" filter="url(#glow)"/><text x="850" y="206" fill="#ffffff" font-size="16" font-weight="800">Node.js</text><text x="850" y="230" fill="#86efac" font-size="13">backend services</text>
<circle cx="528" cy="350" r="7" fill="#84cc16" filter="url(#glow)"/><text x="350" y="354" fill="#ffffff" font-size="16" font-weight="800">TRON / USDT TRC20</text><text x="350" y="378" fill="#86efac" font-size="13">transaction monitoring</text>
<circle cx="870" cy="370" r="7" fill="#84cc16" filter="url(#glow)"/><text x="895" y="374" fill="#ffffff" font-size="16" font-weight="800">Docker / Nginx</text><text x="895" y="398" fill="#86efac" font-size="13">production deploy</text>
<circle cx="700" cy="144" r="7" fill="#22c55e" filter="url(#glow)"/><text x="718" y="150" fill="#ffffff" font-size="16" font-weight="800">Next.js</text>
<circle cx="700" cy="455" r="7" fill="#22c55e" filter="url(#glow)"/><text x="718" y="462" fill="#ffffff" font-size="16" font-weight="800">Prisma / PostgreSQL</text>
<rect x="1" y="1" width="1398" height="558" rx="32" stroke="#22c55e" stroke-opacity=".3"/>
</svg>