<svg width="1400" height="500" viewBox="0 0 1400 500" fill="none" xmlns="http://www.w3.org/2000/svg">
<defs><filter id="glow"><feGaussianBlur stdDeviation="3" result="b"/><feMerge><feMergeNode in="b"/><feMergeNode in="SourceGraphic"/></feMerge></filter><style>text{font-family:ui-monospace,SFMono-Regular,Menlo,Monaco,Consolas,"Liberation Mono",monospace}.cursor{animation:blink 1s steps(1) infinite}.bar1{animation:load1 3s ease-in-out infinite}.bar2{animation:load2 3.4s ease-in-out infinite}.bar3{animation:load3 4s ease-in-out infinite}@keyframes blink{0%,49%{opacity:1}50%,100%{opacity:0}}@keyframes load1{0%,100%{width:220px}50%{width:330px}}@keyframes load2{0%,100%{width:310px}50%{width:455px}}@keyframes load3{0%,100%{width:260px}50%{width:390px}}</style></defs>
<rect width="1400" height="500" rx="32" fill="#020617"/><rect x="56" y="50" width="1288" height="398" rx="24" fill="#0f172a" stroke="#22c55e" stroke-opacity=".55"/><rect x="56" y="50" width="1288" height="58" rx="24" fill="#111827"/>
<circle cx="88" cy="79" r="7" fill="#ef4444"/><circle cx="116" cy="79" r="7" fill="#f59e0b"/><circle cx="144" cy="79" r="7" fill="#22c55e"/><text x="700" y="86" text-anchor="middle" fill="#cbd5e1" font-size="17">yunys@github: ~/mission-control</text>
<text x="95" y="150" fill="#86efac" font-size="22">$ npm run build-profile</text><rect x="95" y="176" height="12" rx="6" fill="#22c55e" class="bar1" filter="url(#glow)"/>
<text x="95" y="225" fill="#ffffff" font-size="20">✓ TypeScript developer profile compiled</text><text x="95" y="262" fill="#ffffff" font-size="20">✓ Telegram bot architecture loaded</text><text x="95" y="299" fill="#ffffff" font-size="20">✓ Crypto monitoring modules linked</text><text x="95" y="336" fill="#ffffff" font-size="20">✓ AML risk-checking mindset enabled</text><text x="95" y="373" fill="#ffffff" font-size="20">✓ Docker / Nginx / VPS deployment ready</text>
<text x="760" y="150" fill="#86efac" font-size="22">$ system status</text><text x="760" y="198" fill="#cbd5e1" font-size="18">telegram-bots</text><rect x="970" y="181" height="16" rx="8" fill="#22c55e" class="bar2" filter="url(#glow)"/><text x="760" y="245" fill="#cbd5e1" font-size="18">crypto-tools</text><rect x="970" y="228" height="16" rx="8" fill="#16a34a" class="bar3" filter="url(#glow)"/><text x="760" y="292" fill="#cbd5e1" font-size="18">backend-services</text><rect x="970" y="275" height="16" rx="8" fill="#84cc16" class="bar1" filter="url(#glow)"/>
<text x="760" y="360" fill="#86efac" font-size="22">$ ship clean</text><rect x="914" y="341" width="12" height="28" rx="2" fill="#22c55e" class="cursor"/><rect x="1" y="1" width="1398" height="498" rx="32" stroke="#22c55e" stroke-opacity=".28"/>
</svg>